<?xml version="1.0"?>
<svg xmlns="http://www.w3.org/2000/svg" xmlns:xlink="http://www.w3.org/1999/xlink" xmlns:svgjs="http://svgjs.com/svgjs" version="1.1" width="512" height="512" x="0" y="0" viewBox="0 0 64 64" style="enable-background:new 0 0 512 512" xml:space="preserve" class=""><g><g xmlns="http://www.w3.org/2000/svg"><path d="m27 11h-10c-1.103 0-2 .897-2 2v10c0 1.103.897 2 2 2h10c1.103 0 2-.897 2-2v-10c0-1.103-.897-2-2-2zm-6 2h2v2h-2zm-4 10v-10h2v4h6v-4h2l.001 10z" fill="#da0000" data-original="#000000" style="" class=""/><path d="m14 53c-1.654 0-3 1.346-3 3s1.346 3 3 3 3-1.346 3-3-1.346-3-3-3zm0 4c-.552 0-1-.448-1-1s.448-1 1-1 1 .448 1 1-.448 1-1 1z" fill="#da0000" data-original="#000000" style="" class=""/><path d="m44 53c-1.654 0-3 1.346-3 3s1.346 3 3 3 3-1.346 3-3-1.346-3-3-3zm0 4c-.552 0-1-.448-1-1s.448-1 1-1 1 .448 1 1-.448 1-1 1z" fill="#da0000" data-original="#000000" style="" class=""/><path d="m56 27h-13v-9c0-1.654-1.346-3-3-3h-1.281c-1.423-7.946-8.37-14-16.719-14s-15.296 6.054-16.719 14h-1.281c-1.654 0-3 1.346-3 3v35c0 1.103.897 2 2 2h4.08c-.047.328-.08.66-.08 1 0 3.859 3.141 7 7 7s7-3.141 7-7c0-.34-.033-.672-.08-1h16.16c-.047.328-.08.66-.08 1 0 3.859 3.141 7 7 7s7-3.141 7-7c0-.34-.033-.672-.08-1h10.08c1.103 0 2-.897 2-2v-19c0-3.86-3.141-7-7-7zm0 2c1.627 0 3.061.793 3.974 2h-12.974c-1.103 0-2 .897-2 2v16h-2v-20zm5 5v5h-14v-6h13.899c.066.323.101.658.101 1zm-14 7h14v8h-14zm-12.051-24c-.217-2.833-1.341-5.411-3.088-7.447l1.414-1.414c2.105 2.404 3.45 5.478 3.674 8.861zm-21.396 10.861c2.036 1.747 4.615 2.871 7.447 3.088v2c-3.383-.225-6.457-1.569-8.861-3.674zm9.447 3.088c2.833-.217 5.411-1.341 7.447-3.088l1.414 1.414c-2.404 2.105-5.478 3.45-8.861 3.674zm-1-1.949c-6.065 0-11-4.935-11-11s4.935-11 11-11 11 4.935 11 11-4.935 11-11 11zm8.447-20.861c-2.036-1.747-4.614-2.871-7.447-3.088v-2c3.383.225 6.457 1.569 8.861 3.674zm-9.447-3.088c-2.833.217-5.411 1.341-7.447 3.088l-1.414-1.414c2.404-2.105 5.478-3.45 8.861-3.674zm-8.861 4.502c-1.748 2.036-2.871 4.614-3.088 7.447h-2c.225-3.383 1.569-6.457 3.674-8.861zm-3.088 9.447c.217 2.833 1.341 5.411 3.088 7.447l-1.414 1.414c-2.105-2.404-3.45-5.478-3.674-8.861zm11.102 15.895-4.912 7.016-1.564-3.911h-4.809l3.851-5.775c2.184 1.43 4.711 2.374 7.434 2.67zm11.128-2.67 3.851 5.775h-4.809l-1.564 3.911-4.912-7.016c2.723-.296 5.25-1.24 7.434-2.67zm1.994-4.364-1.414-1.414c1.747-2.036 2.871-4.615 3.088-7.447h2c-.224 3.383-1.569 6.457-3.674 8.861zm-29.275-10.861h1.051c-.02.333-.051.662-.051 1 0 5.232 2.379 9.915 6.108 13.036l-5.976 8.964h7.191l2.436 6.089 7.241-10.345 7.241 10.345 2.436-6.089h7.191l-5.976-8.964c3.729-3.121 6.108-7.804 6.108-13.036 0-.338-.031-.667-.051-1h1.051c.552 0 1 .449 1 1v31h-38v-31c0-.551.448-1 1-1zm-1 36v-2h6.111c-.587.574-1.068 1.251-1.426 2zm11 8c-2.757 0-5-2.243-5-5s2.243-5 5-5 5 2.243 5 5-2.243 5-5 5zm6.315-8c-.357-.749-.839-1.426-1.426-2h20.221c-.587.574-1.068 1.251-1.426 2zm23.685 8c-2.757 0-5-2.243-5-5s2.243-5 5-5 5 2.243 5 5-2.243 5-5 5zm6.315-8c-.357-.749-.839-1.426-1.426-2h12.111v2z" fill="#da0000" data-original="#000000" style="" class=""/><path d="m49 43h4v2h-4z" fill="#da0000" data-original="#000000" style="" class=""/><path d="m57 15h2v2h-2z" fill="#da0000" data-original="#000000" style="" class=""/><path d="m53 15h2v2h-2z" fill="#da0000" data-original="#000000" style="" class=""/><path d="m49 15h2v2h-2z" fill="#da0000" data-original="#000000" style="" class=""/><path d="m61 11h-14c-1.103 0-2 .897-2 2v6c0 1.103.897 2 2 2h2v1.586c0 1.331 1.083 2.414 2.414 2.414.637 0 1.259-.258 1.707-.707l3.293-3.293h4.586c1.103 0 2-.897 2-2v-6c0-1.103-.897-2-2-2zm0 8h-5.414l-3.88 3.879c-.235.238-.706.045-.706-.293v-3.586h-4v-6h14z" fill="#da0000" data-original="#000000" style="" class=""/></g></g></svg>
