<?xml version="1.0"?>
<svg xmlns="http://www.w3.org/2000/svg" xmlns:xlink="http://www.w3.org/1999/xlink" xmlns:svgjs="http://svgjs.com/svgjs" version="1.1" width="512" height="512" x="0" y="0" viewBox="0 0 512 512" style="enable-background:new 0 0 512 512" xml:space="preserve" class=""><g><g xmlns="http://www.w3.org/2000/svg"><g><path d="m133.992 394.631h-35.43c-4.142 0-7.5 3.358-7.5 7.5s3.358 7.5 7.5 7.5h35.43c4.142 0 7.5-3.358 7.5-7.5s-3.358-7.5-7.5-7.5z" fill="#da0000" data-original="#000000" style=""/><path d="m269.889 225.355h4.143c4.142 0 7.5-3.358 7.5-7.5s-3.358-7.5-7.5-7.5h-4.143c-4.142 0-7.5 3.358-7.5 7.5s3.358 7.5 7.5 7.5z" fill="#da0000" data-original="#000000" style=""/><path d="m231.221 225.355h4.143c4.142 0 7.5-3.358 7.5-7.5s-3.358-7.5-7.5-7.5h-4.143c-4.142 0-7.5 3.358-7.5 7.5s3.358 7.5 7.5 7.5z" fill="#da0000" data-original="#000000" style=""/><path d="m192.553 225.355h4.143c4.142 0 7.5-3.358 7.5-7.5s-3.358-7.5-7.5-7.5h-4.143c-4.142 0-7.5 3.358-7.5 7.5s3.358 7.5 7.5 7.5z" fill="#da0000" data-original="#000000" style=""/><path d="m153.885 225.355h4.143c4.142 0 7.5-3.358 7.5-7.5s-3.358-7.5-7.5-7.5h-4.143c-4.142 0-7.5 3.358-7.5 7.5s3.358 7.5 7.5 7.5z" fill="#da0000" data-original="#000000" style=""/><path d="m115.218 225.355h4.143c4.142 0 7.5-3.358 7.5-7.5s-3.358-7.5-7.5-7.5h-4.143c-4.142 0-7.5 3.358-7.5 7.5s3.358 7.5 7.5 7.5z" fill="#da0000" data-original="#000000" style=""/><path d="m88.193 217.855c0-4.142-3.358-7.5-7.5-7.5h-4.143c-4.142 0-7.5 3.358-7.5 7.5s3.358 7.5 7.5 7.5h4.143c4.142 0 7.5-3.358 7.5-7.5z" fill="#da0000" data-original="#000000" style=""/><path d="m503.603 50.011c-11.196-19.392-31.249-30.97-53.642-30.97-22.392 0-42.445 11.578-53.641 30.97-6.745 11.682-9.42 24.73-8.039 37.499-30.191-16.884-64.956-26.528-101.937-26.528-83.675 0-156.047 49.298-189.613 120.372h-20.932c-2.955 0-5.644-1.744-6.848-4.443l-18.755-42.012c-2.008-4.498-6.489-7.404-11.415-7.404h-26.281c-6.893 0-12.5 5.607-12.5 12.5v88.908c0 26.219 21.331 47.549 47.549 47.549h8.825l-30.522 17.651c-4.169 2.412-6.132 7.158-4.884 11.811 1.249 4.652 5.324 7.778 10.141 7.778h50.16c1.262 6.003 2.794 11.908 4.557 17.712h-37.826c-6.893 0-12.5 5.607-12.5 12.5v136.553c0 6.893 5.607 12.5 12.5 12.5h79c4.142 0 7.5-3.358 7.5-7.5s-3.358-7.5-7.5-7.5h-76.5v-131.552h38.94v21.843c0 5.79 4.71 10.5 10.5 10.5h32.674c5.79 0 10.5-4.71 10.5-10.5v-21.843h38.94v131.553h-20.054c-4.142 0-7.5 3.358-7.5 7.5s3.358 7.5 7.5 7.5h22.554c6.893 0 12.5-5.607 12.5-12.5v-20.38c27.105 12.823 57.368 20.026 89.291 20.026 37.608 0 74.497-10.08 106.678-29.15 31.238-18.511 57.282-44.949 75.316-76.457 2.058-3.595.812-8.177-2.784-10.235-3.594-2.056-8.177-.811-10.235 2.784-2.722 4.755-5.659 9.371-8.763 13.866h-42.027c8.037-19.604 13.84-41.046 17.211-63.58h53.489c-1.596 6.457-3.519 12.838-5.782 19.124-1.403 3.897.619 8.194 4.516 9.597 3.898 1.402 8.194-.619 9.597-4.516 8.191-22.752 12.345-46.638 12.345-70.995 0-36.437-9.358-70.726-25.782-100.607l33.478-57.986c11.197-19.39 11.197-42.545.001-61.938zm-108.835 59.071c.493.964 1.005 1.922 1.552 2.87l19.182 33.224h-17.744c-3.733-7.549-7.816-14.77-12.254-21.598-8.936-13.748-18.916-25.382-29.68-34.757 13.801 5.296 26.854 12.115 38.944 20.261zm-5.309 111.453c-6.348-6.469-15.156-10.18-24.167-10.18h-15.72c-2.119-4.988-5.063-9.504-8.632-13.412-1.238-12.822-2.803-25.13-4.676-36.769h51.964c8.57 19.355 14.744 40.843 18.325 63.579h-14.319c-.85-1.117-1.771-2.195-2.775-3.218zm-16.531-88.783c2.801 4.309 5.449 8.792 7.953 13.422h-47.274c-1.311-6.734-2.732-13.194-4.266-19.329-4.898-19.592-10.567-34.773-16.963-45.515 22.631 7.656 43.542 25.257 60.55 51.422zm-48.305 53.528c-5.831-2.534-12.216-3.925-18.829-3.925h-57.249c.91-7.29 1.936-14.358 3.07-21.18h69.45c1.34 8.044 2.534 16.417 3.558 25.105zm-38.278-109.298c3.812 0 8.625 4.445 13.207 12.195 5.567 9.419 10.836 23.703 15.237 41.306 1.252 5.007 2.419 10.261 3.519 15.691h-63.926c1.099-5.431 2.268-10.683 3.52-15.691 4.4-17.604 9.669-31.887 15.237-41.306 4.58-7.75 9.394-12.195 13.206-12.195zm-26.033 4.349c-6.396 10.742-12.065 25.923-16.963 45.515-1.534 6.137-2.958 12.594-4.269 19.329h-47.25c2.5-4.626 5.133-9.117 7.931-13.422 17.008-26.166 37.92-43.767 60.551-51.422zm-23.886 79.844c-1.101 6.841-2.1 13.906-2.984 21.18h-57.131c2.417-7.302 5.152-14.366 8.167-21.18zm-19.531-71.38c-10.775 9.379-20.766 21.022-29.71 34.782-4.438 6.827-8.521 14.047-12.25 21.598h-37.242c21.048-24.923 48.232-44.504 79.202-56.38zm-90.677 71.38h41.96c-2.805 6.849-5.345 13.916-7.598 21.18h-47.1c3.804-7.345 8.062-14.417 12.738-21.18zm-78.669 101.277c-17.947 0-32.549-14.601-32.549-32.549v-86.408h22.16l18.094 40.53c3.614 8.097 11.679 13.329 20.545 13.329h229.996c10.82 0 20.753 5.439 26.727 14h-23.965c-4.142 0-7.5 3.358-7.5 7.5s3.358 7.5 7.5 7.5h56.736c5.009 0 9.915 2.072 13.46 5.686 3.417 3.482 5.25 7.998 5.161 12.714-.186 9.758-8.28 17.697-18.045 17.697h-59.869c-4.142 0-7.5 3.358-7.5 7.5s3.358 7.5 7.5 7.5h23.336c-.063 8.74-.266 17.379-.603 25.881h-84.778c-.337-8.502-.54-17.142-.603-25.881h27.648c4.142 0 7.5-3.358 7.5-7.5s-3.358-7.5-7.5-7.5h-38.288l23.085-8.725c4.822-1.822 7.543-6.637 6.617-11.708s-5.174-8.613-10.329-8.613h-113.508c-3.95 0-7.845 1.045-11.264 3.022l-45.001 26.025zm280.442 55.881c-1.351 22.685-3.682 44.157-6.914 63.58h-69.466c-3.231-19.422-5.563-40.895-6.914-63.58zm-235.813-18.801c-.283.107-.58.161-.883.161h-43.417l86.944-50.28c1.139-.659 2.438-1.007 3.754-1.007h88.874zm56.925 3.801h-24.557l23.78-8.988c.214 3.012.479 6.006.777 8.988zm-20.989 61.416h-23.674v-17.343h23.674zm-26.547-32.344c-1.523-4.62-2.895-9.308-4.076-14.072h53.476c.709 4.741 1.521 9.435 2.444 14.072zm61.425-43.602 30.032-11.351h35.328c.062 8.732.262 17.371.593 25.881h-64.787c-.502-4.8-.892-9.646-1.166-14.53zm21.562 43.602h-15.848c-.973-4.631-1.839-9.323-2.587-14.072h63.557c1.32 22.579 3.594 44.031 6.744 63.58h-39.365v-37.008c-.001-6.892-5.609-12.5-12.501-12.5zm12.5 111.948v-12.067c6.241 7.922 12.882 14.935 19.85 21.003-6.81-2.611-13.431-5.605-19.85-8.936zm2.708-34.018c-.919-1.414-1.821-2.845-2.708-4.295v-9.128h42.025c1.312 6.734 2.736 13.191 4.271 19.329 4.898 19.592 10.567 34.773 16.963 45.515-22.632-7.654-43.544-25.256-60.551-51.421zm86.583 55.77c-3.812 0-8.625-4.445-13.207-12.195-5.567-9.419-10.836-23.703-15.237-41.306-1.253-5.013-2.429-10.255-3.53-15.69h63.946c-1.101 5.436-2.276 10.678-3.53 15.69-4.4 17.604-9.669 31.887-15.237 41.306-4.58 7.75-9.393 12.195-13.205 12.195zm26.033-4.348c6.396-10.742 12.065-25.923 16.963-45.515 1.534-6.137 2.959-12.594 4.271-19.329h47.269c-2.504 4.63-5.151 9.113-7.952 13.422-17.009 26.165-37.92 43.767-60.551 51.422zm122.715-64.844c-14.062 16.665-30.862 30.964-49.717 42.138-9.476 5.615-19.396 10.384-29.635 14.287 10.795-9.387 20.804-21.045 29.763-34.827 4.438-6.827 8.521-14.048 12.253-21.597h37.336zm-46.863-15h-51.96c3.149-19.549 5.424-41 6.744-63.58h63.558c-3.579 22.742-9.771 44.222-18.342 63.58zm20.301-78.58h-64.788c.331-8.51.531-17.15.593-25.881h21.531c17.88 0 32.703-14.54 33.042-32.413.034-1.784-.085-3.55-.338-5.286h9.947c1.09 10.411 1.664 21.028 1.664 31.79.003 10.761-.562 21.381-1.651 31.79zm69.779 0h-54.702c1.04-10.43 1.576-21.048 1.576-31.79 0-10.743-.548-21.359-1.59-31.79h54.69c1.713 10.348 2.621 20.963 2.621 31.79.001 10.719-.875 21.336-2.595 31.79zm-3.125-78.579h-53.46c-3.372-22.53-9.159-43.978-17.195-63.579h19.632l14.974 25.936c2.26 3.914 6.307 6.25 10.826 6.25s8.566-2.336 10.826-6.25l.433-.749c5.939 12.145 10.638 25 13.964 38.392zm-27.389-45.143c.001-.002.002-.003.003-.005l-.003.005c.001 0 .001 0 0 0zm42.816-74.16-40.651 70.41-40.651-70.41c-8.484-14.696-8.484-32.244 0-46.94 8.485-14.696 23.681-23.47 40.651-23.47s32.166 8.774 40.651 23.47c8.485 14.697 8.485 32.244 0 46.94z" fill="#da0000" data-original="#000000" style=""/><path d="m449.962 56.147c-14.888 0-27.001 12.113-27.001 27.001s12.113 27.001 27.001 27.001 27.001-12.113 27.001-27.001-12.113-27.001-27.001-27.001zm0 39.002c-6.617 0-12.001-5.384-12.001-12.001s5.384-12.001 12.001-12.001 12.001 5.384 12.001 12.001-5.384 12.001-12.001 12.001z" fill="#da0000" data-original="#000000" style=""/></g></g></g></svg>
